<svg width="24" height="24" viewBox="0 0 24 24" fill="none" xmlns="http://www.w3.org/2000/svg">
<path d="M10.623 14.6231C11.3486 13.8974 11.7115 13.0231 11.7115 12.0001C11.7115 10.9771 11.3486 10.1027 10.623 9.37708C9.89729 8.65141 9.02295 8.28857 7.99995 8.28857C6.97695 8.28857 6.10262 8.65141 5.37695 9.37708C4.65129 10.1027 4.28845 10.9771 4.28845 12.0001C4.28845 13.0231 4.65129 13.8974 5.37695 14.6231C6.10262 15.3487 6.97695 15.7116 7.99995 15.7116C9.02295 15.7116 9.89729 15.3487 10.623 14.6231ZM7.99995 17.2116C6.55129 17.2116 5.32054 16.7052 4.3077 15.6923C3.29487 14.6795 2.78845 13.4487 2.78845 12.0001C2.78845 10.5514 3.29487 9.32066 4.3077 8.30782C5.32054 7.29499 6.55129 6.78857 7.99995 6.78857C9.32679 6.78857 10.4739 7.21391 11.4412 8.06458C12.4085 8.91524 12.98 9.97707 13.1557 11.2501H20.7115C20.9243 11.2501 21.1025 11.3219 21.246 11.4656C21.3896 11.6091 21.4615 11.7872 21.4615 12.0001C21.4615 12.2129 21.3896 12.3911 21.246 12.5346C21.1025 12.6782 20.9243 12.7501 20.7115 12.7501H13.1557C12.98 14.0231 12.4085 15.0849 11.4412 15.9356C10.4739 16.7862 9.32679 17.2116 7.99995 17.2116Z" fill="currentColor"/>
</svg>
