<svg width="24" height="24" viewBox="0 0 24 24" fill="none" xmlns="http://www.w3.org/2000/svg">
<path d="M12 13.0635L8.91975 16.152C8.77375 16.2968 8.59675 16.3677 8.38875 16.3645C8.18059 16.3612 8.00359 16.2871 7.85775 16.1423C7.71292 15.9974 7.6405 15.8202 7.6405 15.6105C7.6405 15.401 7.71292 15.2238 7.85775 15.0788L10.9365 12.0008L7.85775 8.94476C7.71292 8.79876 7.6405 8.62018 7.6405 8.40901C7.6405 8.19768 7.71292 8.01901 7.85775 7.87301C8.00259 7.72818 8.17984 7.65576 8.3895 7.65576C8.599 7.65576 8.77625 7.72818 8.92125 7.87301L12 10.9615L15.0553 7.87301C15.2013 7.72818 15.3783 7.65576 15.5863 7.65576C15.7944 7.65576 15.9714 7.72818 16.1173 7.87301C16.2724 8.02818 16.35 8.20801 16.35 8.41251C16.35 8.61701 16.2724 8.79168 16.1173 8.93651L13.0385 12L16.127 15.0803C16.2718 15.2263 16.3443 15.4033 16.3443 15.6113C16.3443 15.8194 16.2718 15.9964 16.127 16.1423C15.9718 16.2974 15.792 16.375 15.5875 16.375C15.383 16.375 15.2083 16.2974 15.0635 16.1423L12 13.0635Z" fill="currentColor"/>
</svg>
