<svg width="24" height="24" viewBox="0 0 24 24" fill="none" xmlns="http://www.w3.org/2000/svg">
<path d="M10.5 20.5H5.30775C4.80258 20.5 4.375 20.325 4.025 19.975C3.675 19.625 3.5 19.1974 3.5 18.6923V5.30777C3.5 4.8026 3.675 4.37502 4.025 4.02502C4.375 3.67502 4.80258 3.50002 5.30775 3.50002H10.5V2.13477C10.5 1.92193 10.5718 1.74368 10.7155 1.60002C10.859 1.45652 11.0372 1.38477 11.25 1.38477C11.4628 1.38477 11.641 1.45652 11.7845 1.60002C11.9282 1.74368 12 1.92193 12 2.13477V21.8653C12 22.0781 11.9282 22.2563 11.7845 22.4C11.641 22.5435 11.4628 22.6153 11.25 22.6153C11.0372 22.6153 10.859 22.5435 10.7155 22.4C10.5718 22.2563 10.5 22.0781 10.5 21.8653V20.5ZM5 18H10.5V11.4038L5 18ZM14 20.5V12L19 18V5.30777C19 5.23077 18.9679 5.16026 18.9038 5.09626C18.8398 5.0321 18.7692 5.00002 18.6923 5.00002H14V3.50002H18.6923C19.1974 3.50002 19.625 3.67502 19.975 4.02502C20.325 4.37502 20.5 4.8026 20.5 5.30777V18.6923C20.5 19.1974 20.325 19.625 19.975 19.975C19.625 20.325 19.1974 20.5 18.6923 20.5H14Z" fill="currentColor"/>
</svg>
