<svg width="24" height="24" viewBox="0 0 24 24" fill="none" xmlns="http://www.w3.org/2000/svg">
<path d="M5.88526 19.3701C5.3801 19.3701 4.95251 19.1951 4.60251 18.8451C4.25251 18.4951 4.07751 18.0675 4.07751 17.5623V15.6008C4.07751 15.388 4.14935 15.2098 4.29301 15.0663C4.43651 14.9227 4.61468 14.8508 4.82751 14.8508C5.04035 14.8508 5.21851 14.9227 5.36201 15.0663C5.50568 15.2098 5.57751 15.388 5.57751 15.6008V17.5623C5.57751 17.6393 5.6096 17.7098 5.67376 17.7738C5.73776 17.838 5.80826 17.8701 5.88526 17.8701H17.2698C17.3468 17.8701 17.4173 17.838 17.4813 17.7738C17.5454 17.7098 17.5775 17.6393 17.5775 17.5623V15.6008C17.5775 15.388 17.6493 15.2098 17.793 15.0663C17.9365 14.9227 18.1147 14.8508 18.3275 14.8508C18.5403 14.8508 18.7185 14.9227 18.862 15.0663C19.0057 15.2098 19.0775 15.388 19.0775 15.6008V17.5623C19.0775 18.0675 18.9025 18.4951 18.5525 18.8451C18.2025 19.1951 17.7749 19.3701 17.2698 19.3701H5.88526ZM10.8275 7.25857L8.90451 9.18157C8.75568 9.33024 8.5791 9.40365 8.37476 9.40182C8.17026 9.39982 7.99043 9.32124 7.83526 9.16607C7.69043 9.01107 7.61543 8.83549 7.61026 8.63932C7.6051 8.44315 7.6801 8.26749 7.83526 8.11232L10.9448 5.00282C11.0384 4.90915 11.1372 4.84315 11.241 4.80482C11.3448 4.76632 11.457 4.74707 11.5775 4.74707C11.698 4.74707 11.8102 4.76632 11.914 4.80482C12.0178 4.84315 12.1166 4.90915 12.2103 5.00282L15.3198 8.11232C15.4684 8.26099 15.5418 8.43507 15.54 8.63457C15.538 8.8339 15.4646 9.01107 15.3198 9.16607C15.1646 9.32124 14.9864 9.4014 14.7853 9.40657C14.5839 9.41174 14.4057 9.33674 14.2505 9.18157L12.3275 7.25857V14.9086C12.3275 15.1214 12.2557 15.2996 12.112 15.4431C11.9685 15.5867 11.7903 15.6586 11.5775 15.6586C11.3647 15.6586 11.1865 15.5867 11.043 15.4431C10.8993 15.2996 10.8275 15.1214 10.8275 14.9086V7.25857Z" fill="currentColor"/>
</svg>
