<svg width="24" height="24" viewBox="0 0 24 24" fill="none" xmlns="http://www.w3.org/2000/svg">
<path d="M9.92439 17.003L18.5077 7.9088C18.6555 7.75211 18.8284 7.67211 19.0264 7.66877C19.2245 7.66544 19.4006 7.74545 19.5548 7.9088C19.7089 8.07215 19.786 8.25972 19.786 8.4715C19.786 8.68345 19.7089 8.8711 19.5548 9.03445L10.5531 18.5882C10.3734 18.7784 10.1639 18.8735 9.92439 18.8735C9.68493 18.8735 9.47536 18.7784 9.29568 18.5882L5.14733 14.1929C4.99961 14.0363 4.92675 13.8503 4.92874 13.635C4.93056 13.4199 5.00856 13.2306 5.16273 13.0673C5.31691 12.9039 5.49394 12.8223 5.69382 12.8223C5.89387 12.8223 6.07098 12.9039 6.22516 13.0673L9.92439 17.003Z" fill="currentColor"/>
<path d="M12.6493 19.3905C13.4131 20.0384 14.378 20.5003 15.5457 20.7738C15.7286 20.8116 15.8527 20.9022 15.9166 21.0464C15.9805 21.1905 15.9925 21.3427 15.9529 21.5023C15.9131 21.6464 15.8315 21.7731 15.708 21.8817C15.5847 21.9901 15.4137 22.0236 15.1957 21.9838C13.7719 21.6821 12.5933 21.0981 11.6582 20.2331C11.773 20.1567 11.8681 20.0878 11.9302 20.0388C12.1088 19.898 12.2895 19.735 12.4453 19.5893C12.5109 19.5279 12.5775 19.4597 12.6493 19.3905Z" fill="currentColor"/>
<path d="M9.02023 20.554C9.22416 20.6304 9.5828 20.7409 10.0359 20.741C10.3149 20.741 10.5567 20.6975 10.745 20.6489C10.7608 20.6658 10.7762 20.683 10.7922 20.6999C10.92 20.8285 10.9854 20.9754 10.9898 21.1394C10.9941 21.3035 10.9455 21.4456 10.8438 21.5653C10.7161 21.7111 10.555 21.778 10.3614 21.765C10.1679 21.7517 10.0076 21.68 9.87989 21.5516C9.56539 21.2253 9.27957 20.8922 9.02023 20.554Z" fill="currentColor"/>
<path d="M14.2408 17.7847C15.0502 18.4569 16.0256 18.7932 17.1662 18.7932C17.2939 18.7932 17.4492 18.781 17.6323 18.7568C17.8154 18.7324 17.9958 18.7138 18.1728 18.7002C18.347 18.6867 18.4984 18.7278 18.6253 18.8242C18.7518 18.9207 18.8213 19.0567 18.8347 19.2318C18.8482 19.4091 18.8081 19.5511 18.7132 19.6577C18.6184 19.7641 18.5 19.8415 18.3587 19.8902C18.1151 19.968 17.8843 20.0158 17.6668 20.0324C17.4494 20.0489 17.2825 20.057 17.1662 20.0571C15.6926 20.0571 14.4268 19.6008 13.3693 18.6893C13.3669 18.6872 13.3645 18.685 13.3621 18.6829C13.4413 18.6021 13.5234 18.521 13.6051 18.4367C13.8041 18.2315 14.0145 18.0106 14.2344 17.7793C14.2366 17.7811 14.2386 17.783 14.2408 17.7847Z" fill="currentColor"/>
<path d="M5.69855 17.5987C6.00794 17.9455 6.3357 18.3048 6.65071 18.6401C6.64312 18.6661 6.63748 18.6927 6.62622 18.7176C6.5589 18.8661 6.44583 18.9724 6.28707 19.0367C6.11085 19.1009 5.94749 19.0969 5.79648 19.0249C5.64543 18.9528 5.52876 18.8194 5.44736 18.6245C5.25026 18.1144 5.10177 17.5554 5.0012 16.9477C4.99199 16.892 4.98509 16.8355 4.97672 16.779C5.20443 17.0402 5.44916 17.3192 5.69855 17.5987Z" fill="currentColor"/>
<path d="M19.4722 12.093C19.8228 12.9504 20 13.8838 20 14.8942C19.9999 15.7162 19.7162 16.4117 19.1494 16.9814C18.5826 17.5509 17.8917 17.8357 17.0764 17.8358C16.2608 17.8358 15.5613 17.5619 14.9789 17.0142C14.9749 17.0104 14.9712 17.0062 14.9671 17.0024C15.2509 16.6997 15.5412 16.3848 15.8359 16.0668C15.8453 16.0766 15.8542 16.0872 15.864 16.0969C16.1984 16.4294 16.6027 16.5957 17.0764 16.5957C17.55 16.5956 17.9484 16.4294 18.2716 16.0969C18.5948 15.7644 18.7567 15.3635 18.7568 14.8942C18.7568 14.2762 18.6757 13.6931 18.5183 13.1443C18.8605 12.7677 19.1826 12.4134 19.4722 12.093Z" fill="currentColor"/>
<path d="M17.6423 14.1045C17.6789 14.3598 17.6976 14.6232 17.6976 14.8942C17.6975 15.0956 17.6439 15.2608 17.5371 15.3902C17.4301 15.5198 17.2766 15.5853 17.0764 15.5854C16.8826 15.5854 16.7279 15.5199 16.613 15.3902C16.588 15.362 16.5664 15.3316 16.5468 15.2999C16.5861 15.2573 16.6264 15.2158 16.6656 15.1732C16.9956 14.8145 17.3225 14.4545 17.6423 14.1045Z" fill="currentColor"/>
<path d="M11.9674 12.0246C11.2846 12.7619 10.6227 13.4714 10.0449 14.0762C9.97968 14.0037 9.91245 13.9315 9.84634 13.8574C9.80611 13.8123 9.76665 13.7666 9.72664 13.7215C9.86896 13.4087 10.0699 13.1218 10.3297 12.8607C10.7962 12.3919 11.342 12.1128 11.9674 12.0246Z" fill="currentColor"/>
<path d="M12.4154 9.7331C12.9349 9.73313 13.4278 9.79776 13.8944 9.92641C13.5735 10.2786 13.2401 10.6425 12.9032 11.0097C12.7442 10.9926 12.5816 10.9833 12.4154 10.9832C11.3003 10.9832 10.353 11.3695 9.5752 12.1422C9.34403 12.3718 9.14823 12.6173 8.98577 12.8772C8.82994 12.6976 8.68403 12.5298 8.55503 12.3793C8.38492 12.1809 8.24348 12.0149 8.14424 11.8978C8.30822 11.6757 8.4922 11.462 8.6974 11.2577C9.71884 10.241 10.9586 9.7331 12.4154 9.7331Z" fill="currentColor"/>
<path d="M12.4018 7.48174C13.5379 7.48175 14.5834 7.69303 15.5394 8.11274C15.5202 8.1339 15.5017 8.15597 15.4822 8.17748C15.2293 8.45749 14.9482 8.76662 14.6489 9.09663C13.9559 8.84803 13.2105 8.72186 12.4117 8.72186C10.6642 8.7219 9.17637 9.3283 7.94837 10.5401C7.7421 10.7437 7.55413 10.9554 7.38251 11.1738C7.00347 10.9241 6.57486 10.776 6.13563 10.7316C6.40169 10.3522 6.70828 9.99062 7.05696 9.6483C8.52861 8.20383 10.3104 7.48174 12.4018 7.48174Z" fill="currentColor"/>
<path d="M12.4018 5.26139C14.0422 5.26139 15.5879 5.61764 17.0383 6.33008C17.0766 6.3489 17.1146 6.36826 17.1526 6.38752C17.0232 6.48845 16.9005 6.60188 16.7871 6.72855L16.7853 6.73038C16.7853 6.73038 16.7825 6.733 16.7808 6.73494C16.7769 6.73925 16.7711 6.74567 16.7636 6.75409C16.748 6.77144 16.725 6.79778 16.6946 6.83159C16.634 6.89924 16.5446 6.99856 16.4308 7.12521C16.3713 7.1914 16.3045 7.26456 16.2322 7.34496C15.0235 6.80662 13.7468 6.53331 12.4018 6.52521C10.953 6.51634 9.59072 6.82804 8.31472 7.46077C7.03869 8.0933 5.99789 9.00755 5.19254 10.2036C5.06461 10.3963 4.91444 10.5007 4.74276 10.5164C4.57081 10.5319 4.42081 10.4964 4.29297 10.4097C4.14967 10.3143 4.05725 10.1884 4.01639 10.0322C3.97582 9.87612 4.01054 9.72249 4.12068 9.5717C5.06273 8.20487 6.26418 7.14454 7.72438 6.39117C9.18457 5.63781 10.7438 5.26139 12.4018 5.26139Z" fill="currentColor"/>
<path d="M12.4154 3C13.4232 3.00003 14.4036 3.12082 15.3562 3.362C16.309 3.60322 17.2312 3.95338 18.122 4.41337C18.3136 4.51762 18.4275 4.64909 18.4638 4.80637C18.5001 4.9636 18.486 5.11464 18.4221 5.25865C18.3494 5.40248 18.2374 5.51243 18.0857 5.58783C17.9336 5.66315 17.7622 5.64817 17.5724 5.54406C16.7698 5.11507 15.9333 4.79244 15.0633 4.57568C14.1935 4.35877 13.3108 4.25018 12.4154 4.25015C11.5178 4.25015 10.6331 4.35559 9.762 4.56565C8.89099 4.77574 8.06027 5.10147 7.27097 5.54406C7.09472 5.64813 6.92056 5.6785 6.74864 5.63525C6.57695 5.59194 6.4467 5.49107 6.35871 5.3316C6.28798 5.18952 6.27672 5.03663 6.32516 4.87385C6.3736 4.71109 6.47742 4.5817 6.6362 4.48632C7.5203 3.9756 8.45205 3.60046 9.43102 3.36018C10.4101 3.12006 11.4052 3 12.4154 3Z" fill="currentColor"/>
</svg>
