<svg width="24" height="24" viewBox="0 0 24 24" fill="none" xmlns="http://www.w3.org/2000/svg">
  <path d="M12.0532 4.33386C13.8199 4.33386 15.4842 4.71536 17.0462 5.47836C18.6082 6.24136 19.9047 7.34428 20.9357 8.78711C21.0902 8.99361 21.1395 9.18111 21.0837 9.34961C21.0279 9.51811 20.9311 9.65811 20.7935 9.76961C20.6558 9.87178 20.499 9.91636 20.3232 9.90336C20.1475 9.89036 20.0003 9.79361 19.8815 9.61311C19.0025 8.34144 17.868 7.37153 16.4782 6.70336C15.0884 6.03519 13.6134 5.69644 12.0532 5.68711C10.493 5.67761 9.02588 6.01169 7.65171 6.68936C6.27738 7.36686 5.15654 8.34619 4.28921 9.62736C4.15138 9.83386 3.98996 9.94544 3.80496 9.96211C3.61979 9.97878 3.45838 9.94069 3.32071 9.84786C3.16638 9.74569 3.06721 9.61094 3.02321 9.44361C2.97938 9.27628 3.01688 9.11178 3.13571 8.95011C4.15021 7.48628 5.44371 6.35094 7.01621 5.54411C8.58871 4.73728 10.2677 4.33386 12.0532 4.33386ZM12.0532 6.71211C14.3127 6.71211 16.2414 7.47861 17.8392 9.01161C19.4369 10.5444 20.2357 12.4239 20.2357 14.6501C20.2357 15.5306 19.9305 16.2759 19.32 16.8861C18.7095 17.4961 17.9651 17.8011 17.087 17.8011C16.2086 17.8011 15.4559 17.5079 14.8287 16.9214C14.2015 16.3347 13.888 15.6059 13.888 14.7349C13.888 14.2225 13.712 13.7883 13.3602 13.4321C13.0084 13.0759 12.5775 12.8979 12.0675 12.8979C11.5573 12.8979 11.1263 13.0759 10.7745 13.4321C10.4226 13.7883 10.2467 14.2225 10.2467 14.7349C10.2467 16.3234 10.6976 17.6593 11.5995 18.7426C12.5013 19.8259 13.7812 20.5607 15.4392 20.9469C15.6362 20.9874 15.7691 21.0849 15.838 21.2394C15.9068 21.3937 15.9199 21.5564 15.8772 21.7274C15.8344 21.8817 15.7465 22.017 15.6135 22.1334C15.4806 22.2495 15.2968 22.2863 15.062 22.2436C13.1401 21.8386 11.6316 20.9596 10.5365 19.6066C9.44113 18.2538 8.89346 16.6299 8.89346 14.7349C8.89346 13.845 9.20288 13.0909 9.82171 12.4724C10.4405 11.8539 11.1891 11.5446 12.0675 11.5446C12.9456 11.5446 13.6941 11.8444 14.313 12.4441C14.9318 13.0438 15.2412 13.7791 15.2412 14.6501C15.2412 15.1529 15.4213 15.5824 15.7815 15.9386C16.1416 16.2948 16.5768 16.4729 17.087 16.4729C17.5971 16.4729 18.0263 16.2948 18.3745 15.9386C18.7226 15.5824 18.8967 15.1529 18.8967 14.6501C18.8967 12.7921 18.2284 11.226 16.8917 9.95186C15.5552 8.67753 13.946 8.04036 12.0642 8.04036C10.1822 8.04036 8.57996 8.68928 7.25746 9.98711C5.93513 11.2849 5.27396 12.8639 5.27396 14.7241C5.27396 15.2936 5.31379 15.8595 5.39346 16.4219C5.47313 16.9842 5.62171 17.5759 5.83921 18.1969C5.90804 18.4034 5.90621 18.5861 5.83371 18.7451C5.76121 18.9043 5.63946 19.0183 5.46846 19.0871C5.27863 19.1559 5.10238 19.1518 4.93971 19.0746C4.77704 18.9974 4.65188 18.8545 4.56421 18.6459C4.35188 18.0994 4.19154 17.5006 4.08321 16.8496C3.97488 16.1984 3.92071 15.4935 3.92071 14.7349C3.92071 12.4805 4.71304 10.5798 6.29771 9.03261C7.88254 7.48561 9.80104 6.71211 12.0532 6.71211ZM12.0675 1.91211C13.153 1.91211 14.2087 2.04128 15.2347 2.29961C16.2609 2.55794 17.2536 2.93344 18.213 3.42611C18.4195 3.53778 18.5423 3.67786 18.5815 3.84636C18.6206 4.01486 18.6058 4.17628 18.537 4.33061C18.4586 4.48494 18.3376 4.60253 18.174 4.68336C18.0101 4.76403 17.826 4.74861 17.6217 4.63711C16.7572 4.17761 15.8565 3.83178 14.9195 3.59961C13.9826 3.36728 13.032 3.25111 12.0675 3.25111C11.1008 3.25111 10.1484 3.36361 9.21021 3.58861C8.27221 3.81361 7.37821 4.16311 6.52821 4.63711C6.33838 4.74861 6.15088 4.78119 5.96571 4.73486C5.78054 4.68853 5.64054 4.57986 5.54571 4.40886C5.46954 4.25669 5.45754 4.09344 5.50971 3.91911C5.56188 3.74478 5.67346 3.60653 5.84446 3.50436C6.79663 2.95736 7.79988 2.55519 8.85421 2.29786C9.90854 2.04069 10.9796 1.91211 12.0675 1.91211ZM12.0675 9.12286C13.6268 9.12286 14.9648 9.65786 16.0815 10.7279C17.1981 11.7977 17.7565 13.1051 17.7565 14.6501C17.7565 14.8661 17.6989 15.0434 17.5837 15.1821C17.4684 15.3209 17.3028 15.3904 17.087 15.3904C16.8783 15.3904 16.7121 15.3209 16.5885 15.1821C16.465 15.0434 16.4032 14.8661 16.4032 14.6501C16.4032 13.4754 15.9784 12.4838 15.1287 11.6751C14.279 10.8664 13.2586 10.4621 12.0675 10.4621C10.8666 10.4621 9.84738 10.8759 9.00971 11.7034C8.17204 12.5309 7.75321 13.5414 7.75321 14.7349C7.75321 16.0095 7.95829 17.1154 8.36846 18.0524C8.77863 18.9892 9.42896 19.9279 10.3195 20.8686C10.4571 21.0063 10.5284 21.1629 10.5332 21.3386C10.5379 21.5144 10.4855 21.6664 10.376 21.7946C10.2383 21.9511 10.0651 22.0224 9.85646 22.0084C9.64779 21.9942 9.47463 21.9183 9.33696 21.7806C8.35363 20.7661 7.62063 19.6978 7.13796 18.5756C6.65546 17.4536 6.41421 16.1734 6.41421 14.7349C6.41421 13.1712 6.96421 11.8449 8.06421 10.7561C9.16421 9.66728 10.4986 9.12286 12.0675 9.12286ZM12.0565 13.9806C12.263 13.9806 12.4262 14.0494 12.5462 14.1871C12.666 14.3248 12.726 14.4885 12.726 14.6784C12.726 16.0037 13.1619 17.0264 14.0337 17.7464C14.9054 18.4662 15.9554 18.8261 17.1837 18.8261C17.3214 18.8261 17.489 18.8131 17.6865 18.7871C17.8838 18.7609 18.0778 18.7406 18.2685 18.7261C18.4561 18.7116 18.6183 18.756 18.755 18.8594C18.8915 18.9627 18.967 19.1082 18.9815 19.2959C18.996 19.4857 18.9521 19.6377 18.85 19.7519C18.7478 19.8659 18.6206 19.9489 18.4685 20.0011C18.2061 20.0844 17.9578 20.135 17.7235 20.1529C17.489 20.1705 17.309 20.1794 17.1837 20.1794C15.5967 20.1794 14.2338 19.6912 13.095 18.7149C11.9563 17.7384 11.387 16.3929 11.387 14.6784C11.387 14.4885 11.4469 14.3248 11.5667 14.1871C11.6867 14.0494 11.85 13.9806 12.0565 13.9806Z" fill="currentColor"/>
</svg>
