<svg width="24" height="24" viewBox="0 0 24 24" fill="none" xmlns="http://www.w3.org/2000/svg">
<path d="M15.777 2.027L19.973 6.223C20.1372 6.38717 20.266 6.57975 20.3595 6.80075C20.4532 7.02175 20.5 7.25417 20.5 7.498V15.8943C20.5 16.1454 20.4221 16.3307 20.2662 16.45C20.1102 16.5692 19.9387 16.6288 19.7517 16.6288C19.5647 16.6288 19.3927 16.5663 19.2355 16.4413C19.0785 16.3163 19 16.1288 19 15.8788V7.5H15.8557C15.4792 7.5 15.1592 7.36817 14.8955 7.1045C14.6318 6.84083 14.5 6.52075 14.5 6.14425V3H7.24999C7.03749 3 6.85941 2.92808 6.71574 2.78425C6.57191 2.64042 6.49999 2.46225 6.49999 2.24975C6.49999 2.03708 6.57191 1.859 6.71574 1.7155C6.85941 1.57183 7.03749 1.5 7.24999 1.5H14.502C14.7458 1.5 14.9782 1.54683 15.1992 1.6405C15.4202 1.734 15.6128 1.86283 15.777 2.027ZM8.30774 17H14.8922L7.99999 10.1077V16.6923C7.99999 16.7692 8.03207 16.8398 8.09624 16.9038C8.16024 16.9679 8.23074 17 8.30774 17ZM16.3922 18.5H8.30774C7.80257 18.5 7.37499 18.325 7.02499 17.975C6.67499 17.625 6.49999 17.1974 6.49999 16.6923V8.60775L1.84224 3.95C1.70391 3.8115 1.63307 3.6375 1.62974 3.428C1.62657 3.21833 1.69741 3.04108 1.84224 2.89625C1.98724 2.75125 2.16291 2.67875 2.36924 2.67875C2.57557 2.67875 2.75124 2.75125 2.89624 2.89625L21.1037 21.1038C21.2422 21.2423 21.3131 21.4163 21.3162 21.626C21.3196 21.8355 21.2487 22.0128 21.1037 22.1578C20.9589 22.3026 20.7833 22.375 20.577 22.375C20.3705 22.375 20.1948 22.3026 20.05 22.1578L16.3922 18.5ZM4.30774 22.5C3.80257 22.5 3.37499 22.325 3.02499 21.975C2.67499 21.625 2.49999 21.1974 2.49999 20.6923V9.25C2.49999 9.0375 2.57191 8.85942 2.71574 8.71575C2.85957 8.57192 3.03774 8.5 3.25024 8.5C3.46291 8.5 3.64099 8.57192 3.78449 8.71575C3.92816 8.85942 3.99999 9.0375 3.99999 9.25V20.6923C3.99999 20.7693 4.03207 20.8398 4.09624 20.9038C4.16024 20.9679 4.23074 21 4.30774 21H14.75C14.9625 21 15.1406 21.0719 15.2842 21.2157C15.4281 21.3596 15.5 21.5378 15.5 21.7502C15.5 21.9629 15.4281 22.141 15.2842 22.2845C15.1406 22.4282 14.9625 22.5 14.75 22.5H4.30774Z" fill="currentColor"/>
</svg>
