<svg width="24" height="24" viewBox="0 0 24 24" fill="none" xmlns="http://www.w3.org/2000/svg">
<path d="M12 20.5001C9.918 20.5001 8.1475 19.7831 6.6885 18.3491C5.2295 16.9151 4.5 15.1738 4.5 13.1251C4.5 12.0828 4.69717 11.1244 5.0915 10.2501C5.48567 9.37578 6.02058 8.5912 6.69625 7.89636L11.0558 3.62136C11.1929 3.49436 11.3436 3.3982 11.5078 3.33286C11.6718 3.26753 11.8358 3.23486 12 3.23486C12.1642 3.23486 12.3282 3.26753 12.4922 3.33286C12.6564 3.3982 12.8071 3.49436 12.9443 3.62136L17.3038 7.89636C17.9794 8.5912 18.5143 9.38061 18.9085 10.2646C19.3028 11.1486 19.5 12.1021 19.5 13.1251C19.5 15.1738 18.7705 16.9151 17.3115 18.3491C15.8525 19.7831 14.082 20.5001 12 20.5001ZM12 19.0001V4.80011L7.75 9.00011C7.16667 9.55011 6.72917 10.1751 6.4375 10.8751C6.14583 11.5751 6 12.3251 6 13.1251C6 14.7418 6.58333 16.1251 7.75 17.2751C8.91667 18.4251 10.3333 19.0001 12 19.0001Z" fill="currentColor"/>
</svg>
