<svg width="24" height="24" viewBox="0 0 24 24" fill="none" xmlns="http://www.w3.org/2000/svg">
<path d="M4.57301 14.1285C4.37701 13.9799 4.27993 13.7847 4.28176 13.543C4.28376 13.3014 4.38285 13.1029 4.57901 12.9478C4.71735 12.8466 4.86926 12.796 5.03476 12.796C5.2001 12.796 5.35201 12.8466 5.49051 12.9478L11.8078 17.8363C11.8654 17.8811 11.9295 17.9035 12 17.9035C12.0705 17.9035 12.1346 17.8811 12.1923 17.8363L18.5095 12.9478C18.648 12.8466 18.7999 12.796 18.9653 12.796C19.1308 12.796 19.2827 12.8466 19.421 12.9478C19.6172 13.1029 19.7163 13.3014 19.7183 13.543C19.7201 13.7847 19.623 13.9799 19.427 14.1285L13.1095 19.0323C12.775 19.2901 12.4052 19.419 12 19.419C11.5948 19.419 11.225 19.2901 10.8905 19.0323L4.57301 14.1285ZM10.8905 14.5978L5.64051 10.517C5.17501 10.1555 4.94226 9.68185 4.94226 9.09602C4.94226 8.51002 5.17501 8.03627 5.64051 7.67477L10.8905 3.59402C11.225 3.33635 11.5948 3.20752 12 3.20752C12.4052 3.20752 12.775 3.33635 13.1095 3.59402L18.3595 7.67477C18.825 8.03627 19.0578 8.51002 19.0578 9.09602C19.0578 9.68185 18.825 10.1555 18.3595 10.517L13.1095 14.5978C12.775 14.8554 12.4052 14.9843 12 14.9843C11.5948 14.9843 11.225 14.8554 10.8905 14.5978ZM12.1923 13.4018L17.4328 9.33627C17.5161 9.27227 17.5578 9.19219 17.5578 9.09602C17.5578 8.99985 17.5161 8.91969 17.4328 8.85552L12.1923 4.79027C12.1346 4.74527 12.0705 4.72277 12 4.72277C11.9295 4.72277 11.8654 4.74527 11.8078 4.79027L6.56726 8.85552C6.48393 8.91969 6.44226 8.99985 6.44226 9.09602C6.44226 9.19219 6.48393 9.27227 6.56726 9.33627L11.8078 13.4018C11.8654 13.4466 11.9295 13.469 12 13.469C12.0705 13.469 12.1346 13.4466 12.1923 13.4018Z" fill="currentColor"/>
</svg>
