<svg width="24" height="24" viewBox="0 0 24 24" fill="none" xmlns="http://www.w3.org/2000/svg">
<path d="M18.3595 7.6657C18.825 8.02719 19.0578 8.50245 19.0578 9.09145C19.0578 9.68061 18.825 10.1559 18.3595 10.5174L16.1078 12.2597C15.9526 12.3714 15.782 12.4204 15.596 12.4069C15.4102 12.3934 15.248 12.3174 15.1095 12.1789C14.9442 12.0136 14.8724 11.8219 14.8943 11.6039C14.9161 11.3861 15.0148 11.2079 15.1903 11.0694L17.4328 9.3367C17.5161 9.2727 17.5578 9.19261 17.5578 9.09644C17.5578 9.00028 17.5161 8.92011 17.4328 8.85595L12.1923 4.7907C12.1411 4.7457 12.0786 4.72319 12.0048 4.72319C11.9311 4.72319 11.8654 4.7457 11.8078 4.7907L10.0038 6.1752C9.84878 6.2867 9.67828 6.33578 9.49228 6.32245C9.30645 6.30895 9.14428 6.23295 9.00578 6.09445C8.84045 5.92911 8.7687 5.73745 8.79053 5.51945C8.8122 5.30145 8.91086 5.12328 9.08653 4.98495L10.8905 3.58495C11.225 3.32728 11.5949 3.19845 12 3.19845C12.4052 3.19845 12.775 3.32728 13.1095 3.58495L18.3595 7.6657ZM19.4463 21.4579L15.3193 17.3309L13.1095 19.0424C12.775 19.3001 12.4052 19.4289 12 19.4289C11.5949 19.4289 11.225 19.3001 10.8905 19.0424L4.57303 14.1289C4.37703 13.9803 4.27995 13.7851 4.28178 13.5434C4.28378 13.3018 4.38286 13.1034 4.57903 12.9482C4.71736 12.847 4.86928 12.7964 5.03478 12.7964C5.20011 12.7964 5.35203 12.847 5.49053 12.9482L11.8078 17.8367C11.8654 17.8815 11.9295 17.9039 12 17.9039C12.0705 17.9039 12.1346 17.8815 12.1923 17.8367L14.225 16.2522L12.4845 14.5424H13.2L13.1095 14.6022C12.775 14.8534 12.4052 14.9815 12 14.9867C11.5949 14.9919 11.2282 14.8656 10.9 14.6079L5.61153 10.4982C5.1462 10.1432 4.91511 9.67428 4.91828 9.09145C4.92161 8.50878 5.1527 8.03995 5.61153 7.68495L5.64228 7.65395L2.10003 4.1272C1.95136 3.97836 1.87286 3.8017 1.86453 3.5972C1.8562 3.39286 1.92953 3.21311 2.08453 3.05795C2.2397 2.90278 2.41795 2.8252 2.61928 2.8252C2.82061 2.8252 2.99878 2.90278 3.15378 3.05795L20.5 20.4042C20.6385 20.5425 20.7094 20.7165 20.7125 20.9262C20.7157 21.1359 20.6449 21.3131 20.5 21.4579C20.3552 21.6028 20.1795 21.6752 19.973 21.6752C19.7667 21.6752 19.5911 21.6028 19.4463 21.4579ZM19.4365 12.9482C19.6224 13.1034 19.7137 13.2976 19.7105 13.5309C19.7074 13.7643 19.6129 13.9636 19.427 14.1289L18.6268 14.7637C18.4718 14.8854 18.3013 14.9395 18.1153 14.9262C17.9294 14.9127 17.7673 14.8367 17.6288 14.6982C17.4634 14.5329 17.3891 14.3361 17.4058 14.1079C17.4224 13.8798 17.5237 13.6964 17.7095 13.5579L18.5095 12.9482C18.648 12.847 18.8025 12.7964 18.973 12.7964C19.1435 12.7964 19.298 12.847 19.4365 12.9482Z" fill="currentColor"/>
</svg>
