<svg width="24" height="24" viewBox="0 0 24 24" fill="none" xmlns="http://www.w3.org/2000/svg">
<path d="M11.4155 20.8395C11.2205 20.7722 11.0442 20.668 10.8865 20.527C9.98919 19.7 9.14944 18.8483 8.36728 17.972C7.58528 17.0958 6.90553 16.2199 6.32803 15.3443C5.75036 14.4686 5.29328 13.6007 4.95678 12.7405C4.62028 11.8802 4.45203 11.0493 4.45203 10.248C4.45203 7.94033 5.19844 6.07208 6.69128 4.64325C8.18428 3.21442 9.95386 2.5 12 2.5C14.0462 2.5 15.8158 3.21442 17.3088 4.64325C18.8016 6.07208 19.548 7.94033 19.548 10.248C19.548 11.0493 19.3798 11.8785 19.0433 12.7355C18.7068 13.5927 18.2514 14.4607 17.677 15.3395C17.1025 16.2183 16.4243 17.0942 15.6423 17.9672C14.8603 18.8404 14.0205 19.6904 13.123 20.5173C12.9654 20.6583 12.7875 20.764 12.5895 20.8345C12.3914 20.905 12.1949 20.9403 12 20.9403C11.8052 20.9403 11.6104 20.9067 11.4155 20.8395ZM13.2778 11.3355C13.6311 10.9823 13.8078 10.5564 13.8078 10.0578C13.8078 9.55908 13.6311 9.13308 13.2778 8.77975C12.9246 8.42658 12.4987 8.25 12 8.25C11.5014 8.25 11.0754 8.42658 10.7223 8.77975C10.3689 9.13308 10.1923 9.55908 10.1923 10.0578C10.1923 10.5564 10.3689 10.9823 10.7223 11.3355C11.0754 11.6887 11.5014 11.8652 12 11.8652C12.4987 11.8652 12.9246 11.6887 13.2778 11.3355Z" fill="currentColor"/>
</svg>
