<svg width="24" height="24" viewBox="0 0 24 24" fill="none" xmlns="http://www.w3.org/2000/svg">
<path d="M11.4655 4.99579C11.3219 4.85196 11.25 4.67379 11.25 4.46129V2.26904C11.25 2.05654 11.322 1.87846 11.4658 1.73479C11.6096 1.59096 11.7878 1.51904 12.0003 1.51904C12.213 1.51904 12.391 1.59096 12.5345 1.73479C12.6782 1.87846 12.75 2.05654 12.75 2.26904V4.46129C12.75 4.67379 12.6781 4.85196 12.5343 4.99579C12.3905 5.13946 12.2123 5.21129 11.9998 5.21129C11.7871 5.21129 11.609 5.13946 11.4655 4.99579ZM16.7963 7.20354C16.6578 7.06521 16.5901 6.89379 16.5933 6.68929C16.5965 6.48479 16.6673 6.30496 16.8058 6.14979L18.3308 4.59029C18.4813 4.43513 18.66 4.35754 18.8668 4.35754C19.0736 4.35754 19.2553 4.43579 19.4118 4.59229C19.5553 4.73579 19.627 4.91071 19.627 5.11704C19.627 5.32354 19.5545 5.49921 19.4095 5.64404L17.85 7.20354C17.7052 7.34854 17.5295 7.42104 17.323 7.42104C17.1167 7.42104 16.9411 7.34854 16.7963 7.20354ZM19.5385 12.7498C19.326 12.7498 19.1479 12.6779 19.004 12.534C18.8604 12.3902 18.7885 12.212 18.7885 11.9995C18.7885 11.7869 18.8604 11.6088 19.004 11.4653C19.1479 11.3216 19.326 11.2498 19.5385 11.2498H21.7308C21.9433 11.2498 22.1214 11.3217 22.265 11.4655C22.4089 11.6094 22.4808 11.7875 22.4808 12C22.4808 12.2127 22.4089 12.3908 22.265 12.5343C22.1214 12.678 21.9433 12.7498 21.7308 12.7498H19.5385ZM11.4655 22.2648C11.3219 22.1211 11.25 21.943 11.25 21.7305V19.5478C11.25 19.3353 11.322 19.1572 11.4658 19.0135C11.6096 18.8697 11.7878 18.7978 12.0003 18.7978C12.213 18.7978 12.391 18.8697 12.5345 19.0135C12.6782 19.1572 12.75 19.3353 12.75 19.5478V21.7305C12.75 21.943 12.6781 22.1211 12.5343 22.2648C12.3905 22.4086 12.2123 22.4805 11.9998 22.4805C11.7871 22.4805 11.609 22.4086 11.4655 22.2648ZM6.15979 7.20354L4.59054 5.66904C4.43537 5.51921 4.35779 5.33813 4.35779 5.12579C4.35779 4.91363 4.43537 4.73513 4.59054 4.59029C4.73537 4.45179 4.91312 4.38254 5.12379 4.38254C5.33445 4.38254 5.50795 4.45179 5.64429 4.59029L7.21354 6.15954C7.35204 6.29588 7.42129 6.46938 7.42129 6.68004C7.42129 6.89071 7.3527 7.06521 7.21554 7.20354C7.06587 7.34204 6.89129 7.41129 6.69179 7.41129C6.49212 7.41129 6.31479 7.34204 6.15979 7.20354ZM18.3405 19.4093L16.8058 17.8498C16.6673 17.6946 16.5965 17.5148 16.5933 17.3103C16.5901 17.1058 16.6571 16.9344 16.7943 16.796C16.9315 16.6575 17.103 16.5883 17.3088 16.5883C17.5145 16.5883 17.6949 16.6607 17.85 16.8055L19.4095 18.3403C19.5584 18.4786 19.6302 18.6526 19.625 18.8623C19.6199 19.072 19.5471 19.2543 19.4068 19.4093C19.2536 19.5645 19.0717 19.642 18.861 19.642C18.6502 19.642 18.4767 19.5645 18.3405 19.4093ZM2.26929 12.7498C2.05679 12.7498 1.8787 12.6779 1.73504 12.534C1.5912 12.3902 1.51929 12.212 1.51929 11.9995C1.51929 11.7869 1.5912 11.6088 1.73504 11.4653C1.8787 11.3216 2.05679 11.2498 2.26929 11.2498H4.46154C4.67404 11.2498 4.8522 11.3217 4.99604 11.4655C5.1397 11.6094 5.21154 11.7875 5.21154 12C5.21154 12.2127 5.1397 12.3908 4.99604 12.5343C4.8522 12.678 4.67404 12.7498 4.46154 12.7498H2.26929ZM4.60004 19.4093C4.46154 19.2645 4.3907 19.0872 4.38754 18.8775C4.38437 18.668 4.45204 18.494 4.59054 18.3555L6.14054 16.8055C6.28537 16.6607 6.45845 16.5883 6.65979 16.5883C6.86095 16.5883 7.03912 16.66 7.19429 16.8035C7.34945 16.96 7.42704 17.1405 7.42704 17.345C7.42704 17.5495 7.34945 17.7293 7.19429 17.8843L5.66929 19.4093C5.51412 19.5645 5.3312 19.642 5.12054 19.642C4.90987 19.642 4.73637 19.5645 4.60004 19.4093ZM8.10579 15.8963C7.03529 14.8273 6.50004 13.5292 6.50004 12.002C6.50004 10.4749 7.03454 9.17604 8.10354 8.10554C9.17254 7.03504 10.4706 6.49979 11.9978 6.49979C13.525 6.49979 14.8238 7.03429 15.8943 8.10329C16.9648 9.17229 17.5 10.4704 17.5 11.9975C17.5 13.5247 16.9655 14.8235 15.8965 15.894C14.8275 16.9645 13.5295 17.4998 12.0023 17.4998C10.4751 17.4998 9.17629 16.9653 8.10579 15.8963Z" fill="currentColor"/>
</svg>
