<svg width="24" height="24" viewBox="0 0 24 24" fill="none" xmlns="http://www.w3.org/2000/svg">
<path d="M21.5304 20.4092C21.8232 20.7021 21.8233 21.1769 21.5304 21.4698C21.2375 21.7627 20.7626 21.7627 20.4697 21.4698L2.53034 3.53044C2.23745 3.23755 2.23745 2.76268 2.53034 2.46978C2.82323 2.17689 3.29811 2.17689 3.591 2.46978L21.5304 20.4092Z" fill="currentColor"/>
<path d="M5.24121 7.65527C4.41479 8.92169 4 10.3692 4 12C4 14.2333 4.7752 16.1248 6.3252 17.6748C7.8752 19.2248 9.76667 20 12 20C13.6307 20 15.0774 19.5841 16.3438 18.7578L17.4023 19.8164C16.8781 20.177 16.3133 20.4897 15.7061 20.752C14.5505 21.2508 13.3157 21.5 12.002 21.5C10.6881 21.5 9.45296 21.2505 8.29688 20.752C7.14071 20.2533 6.13446 19.5765 5.2793 18.7217C4.42419 17.8669 3.74702 16.8617 3.24805 15.7061C2.74925 14.5505 2.50003 13.3157 2.5 12.002C2.5 10.6881 2.74947 9.45296 3.24805 8.29688C3.51034 7.68875 3.82276 7.12251 4.18359 6.59766L5.24121 7.65527ZM19.2559 18.1348C19.0856 18.3366 18.909 18.5333 18.7217 18.7207C18.5543 18.8881 18.3791 19.0464 18.2002 19.2002L17.1533 18.1533C17.3308 18.0025 17.5055 17.8441 17.6748 17.6748C17.8649 17.4847 18.0432 17.2893 18.21 17.0889L19.2559 18.1348ZM11.998 2.5C13.3119 2.5 14.547 2.74947 15.7031 3.24805C16.8593 3.74671 17.8655 4.42349 18.7207 5.27832C19.5758 6.13312 20.253 7.13834 20.752 8.29395C21.2508 9.44954 21.5 10.6843 21.5 11.998C21.5 13.3119 21.2505 14.547 20.752 15.7031C20.5016 16.2835 20.2053 16.8255 19.8652 17.3301L18.8057 16.2705C19.6004 15.0217 20 13.5992 20 12C20 9.76667 19.2248 7.8752 17.6748 6.3252C16.1248 4.7752 14.2333 4 12 4C10.4007 4 8.97738 4.39854 7.72852 5.19336L6.66797 4.13281C7.17196 3.7929 7.71426 3.49835 8.29395 3.24805C9.44954 2.74925 10.6843 2.50003 11.998 2.5ZM13.25 15.6641V16C13.25 16.2125 13.1778 16.3905 13.0342 16.5342C12.8907 16.6779 12.7126 16.75 12.5 16.75C12.2876 16.7499 12.1096 16.678 11.9658 16.5342C11.822 16.3905 11.75 16.2125 11.75 16V14.1641L13.25 15.6641ZM13.25 12.1289V14.25L11.75 12.75V10.6289L13.25 12.1289ZM12.3467 7.25C12.6025 7.2501 12.817 7.3367 12.9902 7.50977C13.1633 7.683 13.2499 7.89751 13.25 8.15332V10.7148L11.75 9.21484V8.75H11.2852L9.98438 7.44922C10.1249 7.31695 10.2962 7.25 10.5 7.25H12.3467ZM6.91016 5.78906C6.70979 5.95584 6.51529 6.13511 6.3252 6.3252C6.15593 6.49447 5.99649 6.66828 5.8457 6.8457L4.7998 5.7998C4.95321 5.62125 5.11132 5.44637 5.27832 5.2793C5.466 5.09155 5.66208 4.91374 5.86426 4.74316L6.91016 5.78906Z" fill="currentColor"/>
</svg>
