<svg width="24" height="24" viewBox="0 0 24 24" fill="none" xmlns="http://www.w3.org/2000/svg">
<path d="M2.94226 15.2844C2.94226 15.8256 3.12818 16.2487 3.50001 16.5537C3.87184 16.8588 4.46676 17.0628 5.28476 17.1654C5.48726 17.1923 5.65001 17.2842 5.77301 17.4412C5.89618 17.5983 5.95259 17.7782 5.94226 17.9807C5.93209 18.1935 5.85618 18.3692 5.71451 18.5077C5.57284 18.646 5.40393 18.7018 5.20776 18.6749C3.96026 18.5211 3.02084 18.1608 2.38951 17.5942C1.75801 17.0275 1.44226 16.2576 1.44226 15.2844C1.44226 14.2718 1.86726 13.4503 2.71726 12.8202C3.56726 12.19 4.74868 11.8083 6.26151 11.6749C6.98851 11.6121 7.53376 11.4807 7.89726 11.2807C8.26059 11.0807 8.44226 10.8038 8.44226 10.4499C8.44226 10.0128 8.25284 9.66917 7.87401 9.41917C7.49518 9.16917 6.87376 8.97942 6.00976 8.84992C5.80709 8.82292 5.64101 8.73 5.51151 8.57117C5.38201 8.41217 5.33076 8.23134 5.35776 8.02867C5.38459 7.816 5.47718 7.643 5.63551 7.50967C5.79384 7.37633 5.97751 7.32633 6.18651 7.35967C7.46084 7.55317 8.40543 7.90317 9.02026 8.40967C9.63493 8.916 9.94226 9.59608 9.94226 10.4499C9.94226 11.2434 9.63751 11.8726 9.02801 12.3374C8.41834 12.8021 7.53334 13.0813 6.37301 13.1749C5.22951 13.2711 4.37184 13.4942 3.80001 13.8442C3.22818 14.1942 2.94226 14.6743 2.94226 15.2844ZM13.1828 18.0479L9.75951 14.6249L18.3365 6.05767C18.6313 5.76283 18.9759 5.617 19.3703 5.62017C19.7644 5.62333 20.1089 5.76917 20.4038 6.05767L21.75 7.40367C22.0448 7.69867 22.1923 8.04483 22.1923 8.44217C22.1923 8.83967 22.0448 9.18583 21.75 9.48067L13.1828 18.0479ZM9.08076 19.4999C8.85509 19.5538 8.65643 19.4948 8.48476 19.3229C8.31293 19.1511 8.25393 18.9524 8.30776 18.7269L8.96726 15.5097L12.2828 18.8249L9.08076 19.4999Z" fill="currentColor"/>
</svg>
