<svg width="24" height="24" viewBox="0 0 24 24" fill="none" xmlns="http://www.w3.org/2000/svg">
<path d="M7.49719 10.6664C6.81319 9.98255 6.47119 9.15788 6.47119 8.19238C6.47119 7.22705 6.81319 6.40238 7.49719 5.71838C8.18103 5.03438 9.00569 4.69238 9.97119 4.69238C10.9365 4.69238 11.7612 5.03438 12.4452 5.71838C13.129 6.40238 13.4709 7.22705 13.4709 8.19238C13.4709 9.15788 13.129 9.98255 12.4452 10.6664C11.7612 11.3504 10.9365 11.6924 9.97119 11.6924C9.00569 11.6924 8.18103 11.3504 7.49719 10.6664ZM3.99044 19.3079C3.56861 19.3079 3.20994 19.1601 2.91444 18.8646C2.61894 18.569 2.47119 18.2103 2.47119 17.7886V17.0846C2.47119 16.554 2.60486 16.0902 2.87219 15.6934C3.13936 15.2965 3.49411 14.986 3.93644 14.7616C4.78644 14.3283 5.68386 13.9777 6.62869 13.7099C7.57369 13.4419 8.68786 13.3079 9.97119 13.3079H10.5807C10.773 13.3079 10.9615 13.3213 11.1462 13.3481C11.4474 13.3751 11.6448 13.531 11.7384 13.8156C11.8319 14.1001 11.7717 14.3495 11.5577 14.5636L10.9594 15.1616C10.5518 15.5693 10.313 16.0478 10.2432 16.5971C10.1734 17.1466 10.2916 17.6489 10.5979 18.1039C10.7723 18.3694 10.7983 18.6364 10.6759 18.9049C10.5534 19.1735 10.3448 19.3079 10.0499 19.3079H3.99044ZM15.4249 17.9464L19.9479 13.4231C20.0864 13.2848 20.2605 13.214 20.4702 13.2106C20.6797 13.2075 20.8569 13.2783 21.0019 13.4231C21.1468 13.5681 21.2192 13.7438 21.2192 13.9501C21.2192 14.1565 21.1468 14.3321 21.0019 14.4771L16.0577 19.4214C15.8769 19.6021 15.6659 19.6924 15.4249 19.6924C15.1839 19.6924 14.973 19.6021 14.7922 19.4214L12.8479 17.4771C12.7096 17.3386 12.6388 17.1645 12.6354 16.9549C12.6323 16.7454 12.7031 16.5681 12.8479 16.4231C12.9929 16.2783 13.1686 16.2059 13.3749 16.2059C13.5813 16.2059 13.7569 16.2783 13.9019 16.4231L15.4249 17.9464Z" fill="currentColor"/>
</svg>
