<svg width="24" height="24" viewBox="0 0 24 24" fill="none" xmlns="http://www.w3.org/2000/svg">
<path d="M1.79822 17.0846C1.79822 16.5693 1.93122 16.1094 2.19722 15.7049C2.46322 15.3004 2.81863 14.986 3.26347 14.7616C4.21347 14.2963 5.16888 13.9376 6.12972 13.6856C7.09072 13.4338 8.1468 13.3079 9.29797 13.3079C10.4493 13.3079 11.5054 13.4338 12.4662 13.6856C13.4272 13.9376 14.3827 14.2963 15.3327 14.7616C15.7776 14.986 16.133 15.3004 16.399 15.7049C16.665 16.1094 16.798 16.5693 16.798 17.0846V17.7886C16.798 18.1911 16.6502 18.545 16.3547 18.8501C16.0592 19.1553 15.7006 19.3079 15.2787 19.3079H3.31722C2.89555 19.3079 2.53697 19.1601 2.24147 18.8646C1.94597 18.569 1.79822 18.2103 1.79822 17.7886V17.0846ZM18.4115 19.3079C18.5371 19.0784 18.633 18.8345 18.699 18.5761C18.765 18.3178 18.798 18.0553 18.798 17.7886V16.9616C18.798 16.3053 18.6371 15.6797 18.3155 15.0849C17.9936 14.4899 17.5378 13.9796 16.948 13.5541C17.6185 13.6541 18.2551 13.8089 18.8577 14.0184C19.4602 14.228 20.0352 14.4758 20.5827 14.7616C21.0994 15.0373 21.4984 15.3616 21.7797 15.7346C22.0611 16.1078 22.2017 16.5168 22.2017 16.9616V17.7886C22.2017 18.2103 22.054 18.569 21.7585 18.8646C21.463 19.1601 21.1044 19.3079 20.6827 19.3079H18.4115ZM6.82397 10.6664C6.14013 9.98255 5.79822 9.15788 5.79822 8.19238C5.79822 7.22705 6.14013 6.40238 6.82397 5.71838C7.50797 5.03438 8.33264 4.69238 9.29797 4.69238C10.2635 4.69238 11.0881 5.03438 11.772 5.71838C12.456 6.40238 12.798 7.22705 12.798 8.19238C12.798 9.15788 12.456 9.98255 11.772 10.6664C11.0881 11.3504 10.2635 11.6924 9.29797 11.6924C8.33264 11.6924 7.50797 11.3504 6.82397 10.6664ZM16.9067 10.6664C16.2227 11.3504 15.3981 11.6924 14.4327 11.6924C14.3199 11.6924 14.1763 11.6795 14.002 11.6539C13.8275 11.6282 13.6839 11.6 13.5712 11.5694C13.9634 11.0937 14.2659 10.5677 14.4787 9.99138C14.6916 9.41522 14.798 8.81555 14.798 8.19238C14.798 7.56938 14.69 6.9713 14.474 6.39813C14.258 5.82513 13.9571 5.29763 13.5712 4.81563C13.7147 4.7643 13.8583 4.73097 14.002 4.71563C14.1455 4.70013 14.2891 4.69238 14.4327 4.69238C15.3981 4.69238 16.2227 5.03438 16.9067 5.71838C17.5906 6.40238 17.9325 7.22705 17.9325 8.19238C17.9325 9.15788 17.5906 9.98255 16.9067 10.6664Z" fill="currentColor"/>
</svg>
