<svg width="24" height="24" viewBox="0 0 24 24" fill="none" xmlns="http://www.w3.org/2000/svg">
<path d="M16.6422 9.83632H9.62122C8.57756 9.83632 7.67947 10.1792 6.92697 10.8651C6.17431 11.5511 5.79797 12.4005 5.79797 13.4133C5.79797 14.4262 6.17431 15.2771 6.92697 15.9661C7.67947 16.6552 8.57756 16.9998 9.62122 16.9998H16.048C16.2608 16.9998 16.4391 17.0717 16.5827 17.2153C16.7262 17.3588 16.798 17.537 16.798 17.7498C16.798 17.9627 16.7262 18.1408 16.5827 18.2843C16.4391 18.428 16.2608 18.4998 16.048 18.4998H9.62122C8.15839 18.4998 6.90547 18.0101 5.86247 17.0306C4.81947 16.0511 4.29797 14.8453 4.29797 13.4133C4.29797 11.9813 4.81947 10.7772 5.86247 9.80082C6.90547 8.82449 8.15839 8.33632 9.62122 8.33632H16.6422L14.3865 6.08057C14.248 5.94207 14.1771 5.76807 14.174 5.55857C14.1708 5.3489 14.2416 5.17165 14.3865 5.02682C14.5313 4.88199 14.707 4.80957 14.9135 4.80957C15.1198 4.80957 15.2954 4.88199 15.4402 5.02682L18.8672 8.45357C18.9609 8.54724 19.0269 8.64599 19.0652 8.74982C19.1037 8.85365 19.123 8.96582 19.123 9.08632C19.123 9.20682 19.1037 9.31899 19.0652 9.42282C19.0269 9.52665 18.9609 9.6254 18.8672 9.71907L15.4402 13.1461C15.3019 13.2844 15.1279 13.3552 14.9182 13.3586C14.7086 13.3617 14.5313 13.2909 14.3865 13.1461C14.2416 13.0011 14.1692 12.8254 14.1692 12.6191C14.1692 12.4127 14.2416 12.2371 14.3865 12.0921L16.6422 9.83632Z" fill="currentColor"/>
</svg>
