<svg width="24" height="24" viewBox="0 0 24 24" fill="none" xmlns="http://www.w3.org/2000/svg">
<path d="M11 21.75C8.5705 21.75 6.50483 20.899 4.803 19.197C3.101 17.4952 2.25 15.4295 2.25 13C2.25 10.5642 3.1035 8.49686 4.8105 6.79803C6.51767 5.09936 8.58917 4.25003 11.025 4.25003H11.8058L10.473 2.91728C10.3347 2.77878 10.2671 2.60478 10.2703 2.39528C10.2734 2.18561 10.3442 2.01153 10.4827 1.87303C10.6213 1.73469 10.7952 1.66553 11.0048 1.66553C11.2144 1.66553 11.3885 1.73469 11.527 1.87303L14.0115 4.36728C14.0948 4.45061 14.1583 4.54678 14.202 4.65578C14.2455 4.76478 14.2673 4.87953 14.2673 5.00003C14.2673 5.12053 14.2455 5.23528 14.202 5.34428C14.1583 5.45328 14.0948 5.54944 14.0115 5.63278L11.5173 8.12703C11.3787 8.26536 11.2063 8.33294 11 8.32978C10.7937 8.32661 10.6213 8.25578 10.4827 8.11728C10.3442 7.97878 10.275 7.80478 10.275 7.59528C10.275 7.38561 10.3442 7.21153 10.4827 7.07303L11.8058 5.75003H11.025C9.0045 5.75003 7.28683 6.45319 5.872 7.85953C4.45733 9.26603 3.75 10.9795 3.75 13C3.75 15.0205 4.45317 16.734 5.8595 18.1405C7.266 19.5469 8.9795 20.25 11 20.25C11.5667 20.25 12.1177 20.1929 12.653 20.0788C13.1882 19.9648 13.7013 19.784 14.1923 19.5365C14.3783 19.4455 14.5674 19.4398 14.7598 19.5193C14.9519 19.5988 15.0884 19.7314 15.1693 19.9173C15.2501 20.1033 15.26 20.2934 15.199 20.4875C15.1382 20.6817 15.0148 20.8192 14.8288 20.9C14.2301 21.191 13.6093 21.4054 12.9663 21.5433C12.3234 21.6811 11.668 21.75 11 21.75ZM16.473 17.6558L12.45 13.6328C12.3565 13.5391 12.2905 13.4404 12.252 13.3365C12.2135 13.2327 12.1943 13.1205 12.1943 13C12.1943 12.8795 12.2135 12.7674 12.252 12.6635C12.2905 12.5597 12.3565 12.4609 12.45 12.3673L16.473 8.34428C16.5667 8.25078 16.6654 8.18478 16.7693 8.14628C16.8731 8.10778 16.9853 8.08853 17.1058 8.08853C17.2262 8.08853 17.3384 8.10778 17.4423 8.14628C17.5461 8.18478 17.6448 8.25078 17.7385 8.34428L21.7615 12.3673C21.8552 12.4609 21.9212 12.5597 21.9595 12.6635C21.998 12.7674 22.0173 12.8795 22.0173 13C22.0173 13.1205 21.998 13.2327 21.9595 13.3365C21.9212 13.4404 21.8552 13.5391 21.7615 13.6328L17.7385 17.6558C17.6448 17.7493 17.5461 17.8153 17.4423 17.8538C17.3384 17.8923 17.2262 17.9115 17.1058 17.9115C16.9853 17.9115 16.8731 17.8923 16.7693 17.8538C16.6654 17.8153 16.5667 17.7493 16.473 17.6558Z" fill="currentColor"/>
</svg>
