<svg width="24" height="24" viewBox="0 0 24 24" fill="none" xmlns="http://www.w3.org/2000/svg">
<path d="M14.877 8.62289C15.2833 9.02939 15.5974 9.52331 15.8192 10.1046C16.041 10.6861 16.125 11.2698 16.071 11.8556C16.071 12.048 16.0018 12.2108 15.8635 12.3441C15.725 12.4775 15.5595 12.5441 15.3672 12.5441C15.1749 12.5441 15.012 12.4775 14.8787 12.3441C14.7454 12.2108 14.6787 12.048 14.6787 11.8556C14.7429 11.416 14.7067 10.9993 14.5702 10.6056C14.4337 10.2121 14.2238 9.87372 13.9405 9.59039C13.6571 9.30706 13.3155 9.09197 12.9155 8.94514C12.5155 8.79831 12.0936 8.76014 11.65 8.83064C11.4576 8.83714 11.2916 8.77272 11.152 8.63739C11.0121 8.50222 10.939 8.33847 10.9327 8.14614C10.9262 7.95381 10.988 7.78772 11.1182 7.64789C11.2484 7.50822 11.4096 7.43522 11.602 7.42889C12.184 7.36222 12.7689 7.43814 13.3567 7.65664C13.9445 7.87531 14.4513 8.19739 14.877 8.62289ZM12 5.99989C11.6448 5.99989 11.2964 6.01722 10.9547 6.05189C10.613 6.08639 10.273 6.14339 9.93445 6.22289C9.72162 6.26656 9.52995 6.23614 9.35945 6.13164C9.18895 6.02714 9.0717 5.87681 9.0077 5.68064C8.94354 5.47814 8.9647 5.28556 9.0712 5.10289C9.17754 4.92022 9.33195 4.80706 9.53445 4.76339C9.93712 4.66722 10.3439 4.59931 10.7547 4.55964C11.1657 4.51981 11.5808 4.49989 12 4.49989C14.1486 4.49989 16.1224 5.05822 17.9212 6.17489C19.7199 7.29156 21.1031 8.80247 22.071 10.7076C22.1376 10.8345 22.186 10.9623 22.2162 11.0911C22.2464 11.22 22.2615 11.3562 22.2615 11.4999C22.2615 11.6436 22.249 11.7798 22.224 11.9086C22.199 12.0375 22.1531 12.1653 22.0865 12.2921C21.7801 12.9331 21.4077 13.5309 20.9692 14.0854C20.5307 14.6399 20.048 15.1492 19.521 15.6134C19.366 15.7519 19.1888 15.8092 18.9895 15.7854C18.79 15.7617 18.6261 15.6621 18.498 15.4864C18.3698 15.3107 18.3166 15.1223 18.3385 14.9211C18.3603 14.7198 18.4487 14.5499 18.6037 14.4114C19.055 14.0024 19.4666 13.5553 19.8385 13.0701C20.2103 12.5848 20.5308 12.0614 20.8 11.4999C19.9666 9.81656 18.7625 8.47906 17.1875 7.48739C15.6125 6.49572 13.8833 5.99989 12 5.99989ZM12 18.4999C9.89479 18.4999 7.96529 17.9374 6.21145 16.8124C4.45762 15.6874 3.06345 14.2056 2.02895 12.3671C1.94562 12.2403 1.8847 12.1025 1.8462 11.9536C1.8077 11.805 1.78845 11.6537 1.78845 11.4999C1.78845 11.3461 1.80512 11.1973 1.83845 11.0536C1.87179 10.9101 1.93012 10.7698 2.01345 10.6326C2.38529 9.95314 2.80645 9.30597 3.27695 8.69114C3.74745 8.07647 4.28845 7.52556 4.89995 7.03839L2.6422 4.76514C2.50387 4.61647 2.43562 4.43989 2.43745 4.23539C2.43945 4.03089 2.51287 3.85622 2.6577 3.71139C2.80254 3.56656 2.9782 3.49414 3.1847 3.49414C3.39104 3.49414 3.56662 3.56656 3.71145 3.71139L20.2885 20.2884C20.427 20.4269 20.5004 20.5983 20.5087 20.8026C20.517 21.0071 20.4436 21.187 20.2885 21.3421C20.1436 21.487 19.968 21.5594 19.7615 21.5594C19.5551 21.5594 19.3795 21.487 19.2347 21.3421L15.7155 17.8536C15.1256 18.0818 14.5195 18.2466 13.897 18.3479C13.2746 18.4492 12.6423 18.4999 12 18.4999ZM5.95395 8.09214C5.36795 8.54481 4.84129 9.05664 4.37395 9.62764C3.90662 10.1988 3.51529 10.8229 3.19995 11.4999C4.03329 13.1832 5.23745 14.5207 6.81245 15.5124C8.38745 16.5041 10.1166 16.9999 12 16.9999C12.4295 16.9999 12.8522 16.9711 13.2682 16.9134C13.6842 16.8557 14.0974 16.7666 14.5077 16.6461L13.2422 15.3499C13.0397 15.4384 12.8375 15.4983 12.6355 15.5296C12.4336 15.5611 12.2218 15.5769 12 15.5769C10.8653 15.5769 9.90212 15.1811 9.11045 14.3894C8.31879 13.5977 7.92295 12.6346 7.92295 11.4999C7.92295 11.2781 7.94029 11.0662 7.97495 10.8644C8.00962 10.6624 8.06795 10.4601 8.14995 10.2576L5.95395 8.09214Z" fill="currentColor"/>
</svg>
