<svg width="24" height="24" viewBox="0 0 24 24" fill="none" xmlns="http://www.w3.org/2000/svg">
<path d="M14.8895 14.3895C15.6811 13.5978 16.077 12.6347 16.077 11.5C16.077 10.3653 15.6811 9.40217 14.8895 8.6105C14.0978 7.81883 13.1346 7.423 12 7.423C10.8653 7.423 9.90212 7.81883 9.11046 8.6105C8.31879 9.40217 7.92296 10.3653 7.92296 11.5C7.92296 12.6347 8.31879 13.5978 9.11046 14.3895C9.90212 15.1812 10.8653 15.577 12 15.577C13.1346 15.577 14.0978 15.1812 14.8895 14.3895ZM10.0875 13.4125C9.56245 12.8875 9.29995 12.25 9.29995 11.5C9.29995 10.75 9.56245 10.1125 10.0875 9.5875C10.6125 9.0625 11.25 8.8 12 8.8C12.75 8.8 13.3875 9.0625 13.9125 9.5875C14.4375 10.1125 14.7 10.75 14.7 11.5C14.7 12.25 14.4375 12.8875 13.9125 13.4125C13.3875 13.9375 12.75 14.2 12 14.2C11.25 14.2 10.6125 13.9375 10.0875 13.4125ZM6.22396 16.8152C4.47846 15.6922 3.0852 14.2148 2.0442 12.3828C1.96087 12.2391 1.89995 12.0945 1.86145 11.949C1.82312 11.8035 1.80396 11.6538 1.80396 11.5C1.80396 11.3462 1.82312 11.1965 1.86145 11.051C1.89995 10.9055 1.96087 10.7609 2.0442 10.6172C3.0852 8.78525 4.47846 7.30775 6.22396 6.18475C7.96946 5.06158 9.89479 4.5 12 4.5C14.1051 4.5 16.0305 5.06158 17.776 6.18475C19.5215 7.30775 20.9147 8.78525 21.9557 10.6172C22.039 10.7609 22.1 10.9055 22.1385 11.051C22.1768 11.1965 22.196 11.3462 22.196 11.5C22.196 11.6538 22.1768 11.8035 22.1385 11.949C22.1 12.0945 22.039 12.2391 21.9557 12.3828C20.9147 14.2148 19.5215 15.6922 17.776 16.8152C16.0305 17.9384 14.1051 18.5 12 18.5C9.89479 18.5 7.96946 17.9384 6.22396 16.8152ZM17.1875 15.5125C18.7625 14.5208 19.9666 13.1833 20.8 11.5C19.9666 9.81667 18.7625 8.47917 17.1875 7.4875C15.6125 6.49583 13.8833 6 12 6C10.1166 6 8.38745 6.49583 6.81246 7.4875C5.23746 8.47917 4.03329 9.81667 3.19995 11.5C4.03329 13.1833 5.23746 14.5208 6.81246 15.5125C8.38745 16.5042 10.1166 17 12 17C13.8833 17 15.6125 16.5042 17.1875 15.5125Z" fill="currentColor"/>
</svg>
