<svg width="24" height="24" viewBox="0 0 24 24" fill="none" xmlns="http://www.w3.org/2000/svg">
<path d="M11.25 21.4498V20.4691C9.16672 20.2549 7.41288 19.4356 5.98855 18.0113C4.56422 16.587 3.74497 14.8331 3.5308 12.7498H2.55005C2.33722 12.7498 2.15905 12.678 2.01555 12.5343C1.87188 12.3908 1.80005 12.2126 1.80005 11.9998C1.80005 11.787 1.87188 11.6088 2.01555 11.4653C2.15905 11.3216 2.33722 11.2498 2.55005 11.2498H3.5308C3.74497 9.16647 4.56422 7.41264 5.98855 5.9883C7.41288 4.56397 9.16672 3.74472 11.25 3.53055V2.5498C11.25 2.33697 11.3219 2.1588 11.4655 2.0153C11.609 1.87164 11.7872 1.7998 12 1.7998C12.2129 1.7998 12.391 1.87164 12.5345 2.0153C12.6782 2.1588 12.75 2.33697 12.75 2.5498V3.53055C14.8334 3.74472 16.5872 4.56397 18.0115 5.9883C19.4359 7.41264 20.2551 9.16647 20.4693 11.2498H21.45C21.6629 11.2498 21.841 11.3216 21.9845 11.4653C22.1282 11.6088 22.2 11.787 22.2 11.9998C22.2 12.2126 22.1282 12.3908 21.9845 12.5343C21.841 12.678 21.6629 12.7498 21.45 12.7498H20.4693C20.2551 14.8331 19.4359 16.587 18.0115 18.0113C16.5872 19.4356 14.8334 20.2549 12.75 20.4691V21.4498C12.75 21.6626 12.6782 21.8408 12.5345 21.9843C12.391 22.128 12.2129 22.1998 12 22.1998C11.7872 22.1998 11.609 22.128 11.4655 21.9843C11.3219 21.8408 11.25 21.6626 11.25 21.4498ZM16.95 16.9498C18.3167 15.5831 19 13.9331 19 11.9998C19 10.0665 18.3167 8.41647 16.95 7.0498C15.5834 5.68314 13.9334 4.9998 12 4.9998C10.0667 4.9998 8.41672 5.68314 7.05005 7.0498C5.68338 8.41647 5.00005 10.0665 5.00005 11.9998C5.00005 13.9331 5.68338 15.5831 7.05005 16.9498C8.41672 18.3165 10.0667 18.9998 12 18.9998C13.9334 18.9998 15.5834 18.3165 16.95 16.9498ZM9.52605 14.4738C8.84205 13.7898 8.50005 12.9651 8.50005 11.9998C8.50005 11.0345 8.84205 10.2098 9.52605 9.5258C10.21 8.8418 11.0347 8.4998 12 8.4998C12.9654 8.4998 13.79 8.8418 14.474 9.5258C15.158 10.2098 15.5 11.0345 15.5 11.9998C15.5 12.9651 15.158 13.7898 14.474 14.4738C13.79 15.1578 12.9654 15.4998 12 15.4998C11.0347 15.4998 10.21 15.1578 9.52605 14.4738ZM13.4125 13.4123C13.8042 13.0206 14 12.5498 14 11.9998C14 11.4498 13.8042 10.979 13.4125 10.5873C13.0209 10.1956 12.55 9.9998 12 9.9998C11.45 9.9998 10.9792 10.1956 10.5875 10.5873C10.1959 10.979 10 11.4498 10 11.9998C10 12.5498 10.1959 13.0206 10.5875 13.4123C10.9792 13.804 11.45 13.9998 12 13.9998C12.55 13.9998 13.0209 13.804 13.4125 13.4123Z" fill="#1C1B1F"/>
</svg>
