<svg width="24" height="24" viewBox="0 0 24 24" fill="none" xmlns="http://www.w3.org/2000/svg">
<path d="M13.802 20.5C12.966 20.5 12.2733 20.2237 11.724 19.671C11.1747 19.1185 10.9 18.4346 10.9 17.6193C10.9 16.4166 11.4029 15.3364 12.4088 14.3787C13.4144 13.4211 14.6615 12.8398 16.15 12.6348C16.0872 11.9064 15.9195 11.3657 15.647 11.0125C15.3747 10.6593 14.9898 10.4827 14.4923 10.4827C13.9603 10.4827 13.3962 10.6958 12.8 11.122C12.2038 11.5483 11.4865 12.2653 10.648 13.273C9.51467 14.6435 8.64708 15.5557 8.04525 16.0095C7.44325 16.4633 6.81475 16.6902 6.15975 16.6902C5.39308 16.6902 4.75808 16.4105 4.25475 15.851C3.75158 15.2913 3.5 14.5872 3.5 13.7385C3.5 12.9153 3.68142 12.0618 4.04425 11.178C4.40708 10.294 5.00392 9.26733 5.83475 8.098C6.20908 7.58133 6.47925 7.15542 6.64525 6.82025C6.81125 6.48492 6.89425 6.20642 6.89425 5.98475C6.89425 5.82308 6.859 5.70192 6.7885 5.62125C6.718 5.54042 6.61225 5.5 6.47125 5.5C6.34292 5.5 6.20442 5.533 6.05575 5.599C5.90708 5.665 5.74683 5.77433 5.575 5.927C5.36983 6.11533 5.13683 6.21467 4.876 6.225C4.61517 6.23533 4.3905 6.14625 4.202 5.95775C3.99683 5.74875 3.89167 5.50358 3.8865 5.22225C3.8815 4.94075 3.98667 4.70575 4.202 4.51725C4.58267 4.18008 4.96342 3.92625 5.34425 3.75575C5.72508 3.58525 6.10075 3.5 6.47125 3.5C7.15458 3.5 7.72925 3.73142 8.19525 4.19425C8.66125 4.65708 8.89425 5.24358 8.89425 5.95375C8.89425 6.40508 8.77408 6.908 8.53375 7.4625C8.29325 8.017 7.88133 8.70575 7.298 9.52875C6.684 10.4096 6.23083 11.1837 5.9385 11.851C5.64617 12.5183 5.5 13.1168 5.5 13.6463C5.5 13.9679 5.56025 14.2223 5.68075 14.4095C5.80125 14.5968 5.96092 14.6905 6.15975 14.6905C6.34558 14.6905 6.52025 14.6398 6.68375 14.5385C6.84708 14.4372 7.08583 14.2307 7.4 13.9192C7.61667 13.7051 7.86375 13.4384 8.14125 13.1193C8.41892 12.8001 8.75517 12.4129 9.15 11.9578C10.2065 10.6949 11.1405 9.8 11.952 9.273C12.7635 8.74617 13.6038 8.48275 14.473 8.48275C15.532 8.48275 16.3877 8.84492 17.0402 9.56925C17.6929 10.2936 18.0628 11.2897 18.15 12.5577H19.5095C19.789 12.5577 20.0256 12.6545 20.2193 12.848C20.4128 13.0417 20.5095 13.2782 20.5095 13.5577C20.5095 13.8372 20.4128 14.0738 20.2193 14.2673C20.0256 14.4609 19.789 14.5577 19.5095 14.5577H18.15C18.0295 16.3666 17.5757 17.8092 16.7885 18.8855C16.0013 19.9618 15.0058 20.5 13.802 20.5ZM13.8328 18.5C14.4366 18.5 14.9443 18.1558 15.3558 17.4672C15.7673 16.7787 16.0269 15.8447 16.1348 14.6652C15.2591 14.8103 14.501 15.1696 13.8605 15.7433C13.2202 16.3169 12.9 16.9153 12.9 17.5385C12.9 17.8358 12.9827 18.0704 13.148 18.2423C13.3135 18.4141 13.5417 18.5 13.8328 18.5Z" fill="currentColor"/>
</svg>
