<svg width="24" height="24" viewBox="0 0 24 24" fill="none" xmlns="http://www.w3.org/2000/svg">
<path d="M7.95195 18.4998C7.73912 18.4998 7.56087 18.428 7.4172 18.2843C7.2737 18.1408 7.20195 17.9627 7.20195 17.7498C7.20195 17.537 7.2737 17.3588 7.4172 17.2153C7.56087 17.0717 7.73912 16.9998 7.95195 16.9998H14.3787C15.4224 16.9998 16.3205 16.6552 17.073 15.9661C17.8256 15.2771 18.202 14.4262 18.202 13.4133C18.202 12.4005 17.8256 11.5511 17.073 10.8651C16.3205 10.1792 15.4224 9.83632 14.3787 9.83632H7.3577L9.61345 12.0921C9.75829 12.2371 9.8307 12.4127 9.8307 12.6191C9.8307 12.8254 9.75829 13.0011 9.61345 13.1461C9.46862 13.2909 9.29137 13.3617 9.0817 13.3586C8.87204 13.3552 8.69804 13.2844 8.5597 13.1461L5.1327 9.71907C5.03904 9.6254 4.97304 9.52665 4.9347 9.42282C4.8962 9.31899 4.87695 9.20682 4.87695 9.08632C4.87695 8.96582 4.8962 8.85365 4.9347 8.74982C4.97304 8.64599 5.03904 8.54724 5.1327 8.45357L8.5597 5.02682C8.70454 4.88199 8.88012 4.80957 9.08645 4.80957C9.29295 4.80957 9.46862 4.88199 9.61345 5.02682C9.75829 5.17165 9.82912 5.3489 9.82595 5.55857C9.82279 5.76807 9.75195 5.94207 9.61345 6.08057L7.3577 8.33632H14.3787C15.8415 8.33632 17.0945 8.82449 18.1375 9.80082C19.1805 10.7772 19.702 11.9813 19.702 13.4133C19.702 14.8453 19.1805 16.0511 18.1375 17.0306C17.0945 18.0101 15.8415 18.4998 14.3787 18.4998H7.95195Z" fill="currentColor"/>
</svg>
