<svg width="24" height="24" viewBox="0 0 24 24" fill="none" xmlns="http://www.w3.org/2000/svg">
<path d="M21.25 4.30775V16.5962C21.25 16.8087 21.1781 16.9868 21.0342 17.1305C20.8904 17.2742 20.7122 17.346 20.4997 17.346C20.2871 17.346 20.1089 17.2742 19.9652 17.1305C19.8217 16.9868 19.75 16.8087 19.75 16.5962V6H9.57297C9.32914 6 9.09672 5.95317 8.87572 5.8595C8.65472 5.766 8.46247 5.6375 8.29897 5.474L6.40372 3.57875C6.53705 3.24292 6.75372 2.97917 7.05372 2.7875C7.35372 2.59583 7.68839 2.5 8.05772 2.5H19.4422C19.9394 2.5 20.365 2.677 20.719 3.031C21.073 3.385 21.25 3.81058 21.25 4.30775ZM8.05772 17.5C7.56055 17.5 7.13497 17.323 6.78097 16.969C6.42697 16.615 6.24997 16.1894 6.24997 15.6923V8.35775L1.95772 4.06525C1.81922 3.92692 1.74839 3.75292 1.74522 3.54325C1.74205 3.33358 1.81289 3.15633 1.95772 3.0115C2.10255 2.86667 2.27822 2.79425 2.48472 2.79425C2.69105 2.79425 2.86664 2.86667 3.01147 3.0115L20.9885 20.9885C21.127 21.127 21.1978 21.301 21.201 21.5105C21.2041 21.7202 21.1333 21.8974 20.9885 22.0422C20.8436 22.1871 20.668 22.2595 20.4615 22.2595C20.2551 22.2595 20.0796 22.1871 19.9347 22.0422L15.3922 17.5H8.05772ZM8.05772 16H13.8922L7.74997 9.8575V15.6923C7.74997 15.7821 7.7788 15.8558 7.83647 15.9135C7.89414 15.9712 7.96789 16 8.05772 16ZM4.55772 21C4.06055 21 3.63497 20.823 3.28097 20.469C2.92697 20.115 2.74997 19.6894 2.74997 19.1923V7.05775C2.74997 6.84525 2.82189 6.66708 2.96572 6.52325C3.10955 6.37958 3.28772 6.30775 3.50022 6.30775C3.71289 6.30775 3.89105 6.37958 4.03472 6.52325C4.17822 6.66708 4.24997 6.84525 4.24997 7.05775V19.1923C4.24997 19.2819 4.2788 19.3557 4.33647 19.4135C4.39414 19.4712 4.46789 19.5 4.55772 19.5H16.6922C16.9047 19.5 17.0829 19.5719 17.2267 19.7157C17.3704 19.8596 17.4422 20.0378 17.4422 20.2502C17.4422 20.4629 17.3704 20.641 17.2267 20.7845C17.0829 20.9282 16.9047 21 16.6922 21H4.55772Z" fill="currentColor"/>
</svg>
